<svg width="714" height="2273" viewBox="0 0 714 2273" fill="none" xmlns="http://www.w3.org/2000/svg">
<path d="M192 133.362C444 -132.638 647.5 57.3622 713.026 202.739V1045.24H25.5265C-3.64019 951.572 -32.0735 741.539 87.5265 650.739C237.026 537.239 124 605.362 192 133.362Z" fill="#C40233"/>
<path d="M181.083 1295.76C67.8734 1196.56 26.5236 1067.73 20 1017L711.475 1019.57C712.492 1273.96 713 2069 713 2069H648.275H386.828C342.768 2069 285.461 1991.62 268.901 1966.52C155.992 1814.84 299.512 1617.56 299.512 1549.92C307.207 1506.54 294.293 1394.97 181.083 1295.76Z" fill="#C40233"/>
<path d="M364.156 2053.3C362.549 2043.38 358.109 2033.29 357 2023.01C382.766 2023.01 410.727 2018.49 435.712 2023.01C453.521 2023.01 464.082 2020 484.7 2023.01C488.851 2018.49 510.612 2025.97 522.129 2023.01C534.614 2019.8 552.005 2023.66 565.063 2023.66C577.451 2021.5 591.388 2023.66 604.651 2023.66H690.011C695.357 2023.66 701.146 2022.15 706.964 2022.15C708.597 2022.15 713 2021.3 713 2022.15C713 2027.53 711.659 2032.75 711.659 2038.05C711.659 2065.89 708.976 2093.49 708.976 2121.25C708.976 2132.46 704.952 2142.81 704.952 2154.07C704.952 2164.42 705.238 2174.11 702.717 2184.2C698.525 2200.97 696.156 2218.99 690.794 2235.34C685.589 2251.21 677.335 2254.59 663.669 2261.37C638.398 2273.92 608.558 2274.15 581.402 2271.92C562.543 2270.37 543.478 2266.54 525.29 2261.04C514.368 2257.74 506.269 2247.83 499.134 2238.35C492.669 2229.77 487.985 2219.09 483.933 2208.97C478.121 2194.47 468.577 2181.6 460.832 2168.3C441.665 2135.37 408.425 2120.97 385.122 2093.05C377.871 2084.36 377.151 2079.95 373.364 2070.47C378.035 2082.26 364.649 2056.35 364.156 2053.3Z" fill="#C40233"/>
</svg>
